<?xml version="1.0" standalone="no"?>
<!DOCTYPE svg PUBLIC "-//W3C//DTD SVG 20010904//EN"
 "http://www.w3.org/TR/2001/REC-SVG-20010904/DTD/svg10.dtd">
<svg version="1.0" xmlns="http://www.w3.org/2000/svg"
 width="2032.000000pt" height="2471.000000pt" viewBox="0 0 2032.000000 2471.000000"
 preserveAspectRatio="xMidYMid meet">

<g transform="translate(0.000000,2471.000000) scale(0.100000,-0.100000)"
fill="#000000" stroke="none">
<path d="M14658 20544 c-90 -21 -149 -57 -217 -129 -49 -53 -61 -73 -59 -93 5
-45 32 -37 77 22 76 98 181 149 311 150 76 1 139 -19 265 -81 179 -89 321
-198 521 -398 262 -263 565 -708 650 -955 31 -89 25 -259 -15 -433 -36 -159
-37 -173 -14 -181 28 -11 41 14 73 144 25 99 33 155 37 266 5 127 3 149 -17
215 -56 187 -274 539 -505 819 -102 123 -343 351 -466 439 -124 90 -318 191
-414 216 -72 18 -150 18 -227 -1z"/>
<path d="M14114 20465 c-81 -17 -199 -68 -273 -115 -77 -50 -318 -258 -404
-350 -122 -129 -274 -349 -317 -460 -37 -93 -80 -236 -80 -263 0 -14 6 -27 12
-29 9 -3 -6 -44 -44 -125 -32 -66 -62 -138 -67 -159 -5 -22 -21 -73 -36 -114
-21 -56 -29 -100 -33 -175 -4 -89 -1 -113 27 -220 18 -66 38 -136 46 -155 8
-20 16 -87 18 -160 6 -148 35 -253 74 -258 31 -5 38 29 18 88 -26 80 -34 158
-23 255 37 361 46 412 94 549 26 77 24 109 -8 104 -22 -3 -41 -44 -84 -183
-19 -62 -23 -70 -18 -35 9 72 52 214 93 310 81 188 169 298 343 429 74 56 226
141 251 141 3 0 7 -9 10 -20 3 -11 12 -20 21 -20 9 0 28 -7 41 -16 45 -30 75
7 38 48 -9 10 -11 18 -5 18 6 0 22 -14 34 -30 20 -28 26 -30 63 -25 22 4 45
12 50 19 18 23 53 26 58 5 7 -27 34 -24 53 6 9 14 23 25 31 25 14 0 13 -11 -4
-56 -6 -16 22 -35 40 -29 8 4 21 23 29 43 l14 37 102 -199 c56 -109 124 -229
150 -267 97 -139 399 -439 442 -439 54 0 31 33 -157 223 -200 203 -233 245
-332 425 -48 86 -68 137 -87 213 -29 122 -34 132 -86 169 -53 39 -109 40 -181
4 -29 -15 -56 -32 -60 -38 -24 -33 10 47 38 89 19 28 37 68 41 89 4 25 41 90
106 185 98 145 114 186 74 186 -30 0 -220 -274 -237 -340 -7 -27 -27 -71 -45
-97 -43 -63 -58 -111 -50 -162 4 -31 3 -37 -5 -23 -32 54 -130 61 -249 17
-145 -52 -356 -212 -458 -345 -99 -130 -199 -366 -223 -529 -20 -133 -29 -148
-25 -46 2 70 10 114 28 165 14 39 37 103 52 143 37 105 127 276 187 355 46 61
79 92 193 180 37 28 47 63 22 73 -27 10 -176 -107 -248 -195 -23 -28 -43 -49
-45 -47 -7 6 69 212 94 256 49 85 126 195 201 289 81 100 358 350 466 421 79
52 206 101 278 107 56 6 58 5 68 -23 6 -15 8 -44 5 -64 -7 -39 12 -67 38 -57
19 7 29 92 17 138 -18 66 -75 86 -176 64z"/>
<path d="M14450 20105 c-16 -20 3 -45 34 -45 82 0 215 -73 317 -174 115 -115
198 -257 260 -447 21 -67 58 -157 81 -200 45 -84 231 -344 359 -499 71 -87 76
-95 56 -100 -26 -7 -34 -46 -18 -92 6 -17 9 -34 6 -37 -12 -11 -76 68 -93 114
-19 54 -44 68 -61 36 -23 -43 42 -156 115 -202 54 -33 34 -34 -38 -1 -57 26
-67 35 -82 71 -13 34 -21 42 -39 39 -16 -2 -23 -11 -25 -34 -3 -35 31 -84 83
-116 l30 -19 -40 7 c-22 4 -57 15 -78 26 -44 22 -67 18 -67 -12 0 -46 137 -91
220 -72 25 6 46 9 48 7 2 -2 -17 -17 -42 -34 -37 -26 -54 -31 -101 -31 -59 0
-79 -16 -55 -45 14 -17 111 -21 140 -5 15 8 20 6 25 -11 13 -41 42 -16 92 81
72 141 139 176 208 107 53 -53 70 -197 44 -384 -19 -138 -76 -230 -200 -325
-83 -63 -119 -77 -154 -58 -29 16 -55 7 -55 -19 0 -91 190 -52 306 63 65 66
129 163 150 230 22 67 31 366 15 434 -7 26 -25 63 -41 83 -20 26 -26 39 -18
47 20 20 -1 43 -66 72 -97 44 -133 97 -201 291 -44 126 -151 484 -200 669 -20
74 -42 141 -49 148 -14 15 -46 6 -46 -13 0 -31 165 -633 204 -743 9 -24 11
-40 7 -37 -19 11 -240 323 -274 385 -20 36 -56 124 -80 196 -52 152 -79 209
-152 319 -103 155 -257 283 -392 325 -78 24 -116 25 -133 5z m1221 -1571 l29
-21 -35 -10 c-34 -11 -34 -10 -55 31 -11 23 -20 51 -20 62 1 16 4 15 27 -11
14 -16 39 -39 54 -51z"/>
<path d="M13789 19985 c-136 -33 -229 -95 -372 -245 -63 -66 -87 -98 -85 -113
7 -47 37 -28 160 95 132 133 193 172 313 203 69 18 99 19 125 5 23 -12 52 12
43 36 -14 36 -83 43 -184 19z"/>
<path d="M14103 19850 c-26 -11 -31 -45 -8 -54 8 -3 28 -3 44 0 70 14 158 -50
210 -154 16 -32 50 -120 75 -196 90 -270 169 -387 475 -698 58 -60 111 -108
118 -108 7 0 13 -4 13 -9 0 -42 46 -259 75 -355 50 -164 153 -437 174 -459 15
-15 19 -15 36 -3 18 13 17 18 -34 159 -50 138 -52 147 -36 163 11 11 15 26 11
43 -3 14 -9 82 -12 151 -8 142 6 231 56 374 17 47 30 91 30 99 0 17 -27 30
-42 21 -17 -11 -49 -94 -77 -204 l-28 -105 -7 99 c-5 62 -3 139 5 207 9 80 10
112 1 121 -40 40 -67 -69 -67 -275 0 -205 -12 -133 -29 183 -21 362 -48 502
-134 678 -43 90 -116 174 -146 170 -33 -5 -30 -34 7 -72 88 -88 167 -303 192
-526 8 -69 21 -380 16 -380 -2 0 -57 56 -122 124 -261 272 -326 370 -414 626
-74 216 -142 322 -234 366 -43 21 -117 28 -148 14z m1067 -1477 c0 -10 3 -36
7 -58 8 -53 -1 -43 -20 23 -14 45 -14 52 -1 52 7 0 14 -8 14 -17z"/>
<path d="M15499 19698 c-3 -30 6 -45 54 -98 165 -180 286 -406 350 -655 39
-155 40 -164 42 -435 2 -283 8 -321 80 -498 39 -96 54 -116 78 -106 25 9 21
40 -18 138 -66 163 -75 223 -75 483 0 193 -3 249 -21 338 -39 207 -120 404
-233 575 -120 179 -252 312 -257 258z"/>
<path d="M13283 19208 c-10 -18 -77 -222 -113 -348 -38 -135 -71 -348 -73
-475 -1 -61 6 -140 17 -201 18 -96 18 -107 2 -216 -19 -137 -20 -218 -2 -318
13 -74 85 -311 106 -350 13 -24 33 -26 50 -5 13 16 10 30 -60 250 -47 145 -55
232 -36 370 20 149 20 241 -1 367 -14 88 -15 115 -4 217 22 201 50 325 131
568 34 104 37 138 14 147 -21 8 -22 8 -31 -6z"/>
<path d="M16076 18803 c-11 -35 -26 -189 -26 -260 0 -169 44 -340 114 -447 22
-33 46 -73 53 -88 8 -20 19 -28 37 -28 14 0 27 4 30 9 3 5 -2 69 -11 143 l-17
134 23 72 c26 79 23 105 -11 100 -36 -5 -67 -94 -68 -193 -1 -75 -2 -78 -15
-54 -8 15 -27 67 -41 115 -26 83 -27 100 -25 254 1 91 3 185 4 210 2 39 -1 45
-20 48 -14 2 -23 -3 -27 -15z"/>
<path d="M15685 18321 c-53 -22 -133 -149 -123 -197 2 -11 12 -20 23 -22 17
-2 27 10 52 67 28 64 36 72 80 93 58 28 67 62 18 65 -16 1 -39 -2 -50 -6z"/>
<path d="M15961 17922 c-7 -14 -6 -25 4 -39 8 -11 26 -67 41 -124 37 -141 39
-252 4 -328 l-25 -53 0 129 c0 108 -3 133 -18 157 -13 19 -25 26 -37 23 -15
-4 -20 2 -22 26 -2 22 -9 33 -22 35 -23 5 -36 -14 -36 -53 -1 -75 -135 -311
-231 -407 -28 -27 -52 -48 -54 -46 -3 2 9 37 26 78 38 89 64 223 49 251 -16
28 -40 23 -53 -11 -14 -36 -34 -45 -57 -25 -23 21 -45 10 -61 -28 -13 -31
-112 -161 -142 -186 -9 -7 -17 -22 -17 -32 0 -10 -5 -21 -11 -25 -15 -9 -5 34
36 166 53 165 97 338 93 368 -4 40 -45 44 -54 5 -17 -78 -60 -231 -95 -338
-21 -66 -45 -153 -54 -193 -8 -39 -28 -98 -44 -131 -49 -97 -144 -214 -208
-257 -118 -78 -194 -146 -191 -168 5 -36 41 -30 99 17 30 24 81 62 114 84 33
22 78 60 101 84 73 80 162 224 177 290 6 21 11 25 31 22 26 -5 144 63 199 115
15 14 27 22 27 16 0 -9 -47 -99 -84 -160 -66 -111 100 -62 224 66 77 78 161
210 205 321 31 76 33 78 39 48 10 -53 6 -200 -7 -266 -7 -34 -26 -80 -41 -102
-33 -47 -31 -75 5 -79 21 -2 38 10 87 63 104 111 149 229 139 365 -6 78 -61
305 -79 327 -15 19 -46 16 -57 -5z m-460 -500 c-5 -10 -18 -25 -27 -33 -11 -9
-9 -2 6 19 26 35 36 42 21 14z"/>
<path d="M16094 17859 c-10 -17 44 -115 81 -148 30 -26 31 -30 14 -34 -27 -7
-24 -42 7 -66 41 -32 93 -43 155 -31 67 13 101 35 97 62 -2 17 -17 25 -71 40
-121 33 -180 75 -212 151 -12 28 -21 37 -40 37 -13 0 -27 -5 -31 -11z m181
-217 c-3 -3 -11 0 -18 7 -9 10 -8 11 6 5 10 -3 15 -9 12 -12z"/>
<path d="M13464 17433 c-109 -78 -141 -110 -170 -170 -20 -40 -23 -56 -15 -70
9 -15 2 -25 -41 -64 -36 -32 -50 -51 -45 -62 10 -27 49 -20 96 18 25 20 54 38
66 41 14 3 58 -13 123 -45 57 -27 139 -62 184 -78 83 -29 116 -53 175 -128 26
-33 35 -38 49 -29 29 17 27 27 -21 89 -51 66 -91 96 -150 115 -22 7 -67 25
-101 40 l-61 27 -18 67 c-21 78 -38 97 -63 73 -13 -14 -14 -23 -5 -57 11 -44
9 -46 -27 -25 -14 8 -44 14 -67 15 l-41 0 11 32 c15 41 64 90 150 152 l69 48
126 -60 c70 -33 159 -72 198 -87 65 -25 74 -32 103 -82 41 -68 170 -230 255
-320 54 -58 67 -78 80 -129 22 -84 73 -194 91 -194 33 0 33 34 -1 125 -19 50
-38 109 -44 133 -7 27 -23 54 -46 75 -55 50 -192 218 -264 324 l-65 96 -135
57 c-74 31 -168 73 -207 93 -40 20 -81 37 -91 37 -11 0 -55 -25 -98 -57z"/>
<path d="M15803 17373 c-18 -55 -58 -130 -116 -222 -79 -124 -102 -180 -117
-291 -12 -85 1 -255 20 -274 33 -33 -358 -475 -590 -668 -165 -138 -284 -178
-376 -129 -42 23 -64 18 -64 -15 0 -17 12 -30 43 -49 78 -45 189 -29 311 45
204 124 616 560 757 802 124 211 139 376 38 420 -16 7 -29 16 -29 20 0 4 35
65 78 136 76 124 111 209 97 231 -10 17 -45 13 -52 -6z m-95 -464 c18 -34 7
-101 -30 -182 -21 -46 -34 -64 -40 -55 -12 19 -10 166 3 232 11 54 13 56 33
43 12 -8 27 -25 34 -38z"/>
<path d="M15947 17203 c-4 -3 -7 -19 -7 -34 0 -33 23 -49 72 -49 53 0 105 -19
120 -43 18 -27 48 -114 48 -138 0 -16 -8 -15 -71 12 -90 36 -109 37 -109 4 0
-19 8 -29 33 -39 143 -63 167 -76 167 -93 1 -56 29 -323 34 -332 10 -15 31
-14 46 3 9 12 9 45 0 147 -6 72 -9 134 -6 136 3 3 44 -17 93 -44 48 -28 142
-78 208 -113 66 -35 170 -91 231 -126 62 -35 121 -64 132 -64 24 0 37 27 21
46 -16 20 -145 92 -382 215 -115 60 -235 126 -266 146 -48 33 -57 43 -62 78
-4 22 -6 41 -5 42 5 6 247 -112 400 -194 198 -108 413 -185 561 -203 50 -6
104 -15 121 -20 48 -16 139 -120 212 -245 23 -38 75 -115 116 -170 41 -55 87
-124 101 -152 39 -80 82 -221 95 -309 6 -44 22 -158 36 -254 21 -146 44 -511
29 -460 -3 8 -16 105 -29 215 -37 296 -71 406 -182 594 -68 115 -126 192 -213
284 -71 75 -92 90 -115 81 -30 -11 -16 -37 67 -123 95 -99 164 -197 242 -343
75 -143 108 -268 140 -535 15 -120 38 -276 51 -348 13 -71 29 -195 34 -275 6
-80 15 -197 20 -260 6 -63 15 -290 20 -505 13 -529 30 -698 81 -828 l20 -49
-228 4 c-201 5 -236 8 -293 27 -166 57 -463 224 -707 397 -72 52 -153 105
-180 119 -97 51 -376 86 -390 49 -11 -28 20 -42 122 -53 123 -14 209 -36 255
-64 19 -12 91 -61 160 -110 69 -49 167 -113 218 -143 l92 -55 -32 -49 c-18
-27 -76 -109 -129 -182 -201 -278 -287 -432 -384 -688 -66 -175 -89 -213 -173
-292 -179 -165 -469 -287 -692 -292 -47 -1 -91 -5 -98 -10 -21 -13 -13 -35 20
-52 39 -20 95 -16 256 21 238 54 409 142 565 294 96 92 117 127 177 286 99
265 226 491 459 810 43 60 70 106 68 116 -4 14 5 11 42 -12 65 -40 243 -123
321 -150 59 -21 89 -24 330 -29 155 -3 270 -2 278 3 19 14 15 45 -18 143 -45
132 -58 267 -70 700 -5 214 -15 453 -20 530 -6 78 -13 339 -15 580 -2 242 -8
471 -14 509 -63 465 -69 502 -101 597 -43 129 -71 181 -166 309 -47 63 -98
139 -115 169 -16 30 -61 95 -101 144 -84 105 -116 122 -251 137 -166 19 -338
85 -716 276 -330 166 -335 169 -358 213 -29 55 -33 57 -110 66 -38 4 -64 11
-67 20 -6 15 -28 19 -39 7z"/>
<path d="M14720 17131 c-50 -16 -166 -80 -188 -103 -12 -14 -33 -60 -46 -104
-14 -43 -32 -100 -42 -125 -20 -51 -14 -79 16 -79 24 0 48 49 89 180 l26 85
84 43 c110 55 201 58 201 5 0 -7 -33 -61 -74 -120 -98 -144 -112 -175 -120
-263 -12 -124 -23 -156 -67 -188 -54 -40 -91 -89 -137 -185 -54 -109 -82 -223
-82 -331 0 -71 3 -88 16 -93 29 -11 44 25 44 102 0 154 87 356 195 450 61 54
62 56 69 116 3 34 10 79 16 100 5 22 15 57 20 79 6 21 49 96 96 165 46 69 87
139 90 155 7 31 -16 79 -45 97 -23 14 -131 24 -161 14z"/>
<path d="M15393 17083 c-10 -26 26 -220 54 -293 30 -75 45 -95 67 -87 23 9 20
44 -8 113 -14 33 -32 101 -41 150 -24 136 -23 134 -46 134 -11 0 -23 -8 -26
-17z"/>
<path d="M15793 17084 c-3 -8 4 -25 15 -37 32 -34 42 -71 42 -152 0 -157 -87
-339 -263 -553 -48 -58 -59 -77 -51 -90 6 -9 16 -18 23 -20 25 -8 162 161 245
304 70 121 98 210 104 329 5 109 -6 167 -39 209 -23 29 -66 35 -76 10z"/>
<path d="M13048 17045 c-2 -3 -174 -47 -382 -99 -446 -112 -476 -125 -544
-227 -93 -140 -136 -189 -196 -227 -124 -78 -294 -371 -230 -396 22 -9 34 1
51 43 51 124 160 264 251 323 37 25 72 67 189 233 16 23 51 52 80 68 47 25
335 105 658 184 55 13 107 26 116 29 13 4 16 -3 15 -33 -1 -32 3 -39 21 -41
16 -2 26 5 37 26 l15 30 76 -24 c42 -13 90 -24 108 -24 40 0 179 -33 230 -55
46 -19 109 -75 138 -122 15 -24 27 -33 43 -31 35 5 31 40 -13 96 -72 91 -168
139 -323 163 -40 6 -104 20 -143 31 -38 11 -88 22 -110 25 -22 3 -44 12 -48
19 -8 14 -29 19 -39 9z"/>
<path d="M13015 16803 c-50 -26 -92 -73 -118 -132 -32 -71 -52 -168 -43 -206
10 -40 194 -218 240 -232 68 -21 91 33 25 61 -16 7 -68 50 -115 96 -93 92 -97
103 -70 191 24 78 55 128 95 155 36 23 42 24 82 14 44 -12 199 -93 311 -163
65 -41 91 -44 96 -11 3 24 -42 56 -218 155 -154 86 -224 104 -285 72z"/>
<path d="M12169 16603 c-25 -29 -24 -250 0 -363 22 -99 37 -125 64 -114 22 8
21 25 -4 137 -15 71 -19 116 -16 197 2 58 8 117 12 133 7 24 5 27 -18 27 -13
0 -31 -7 -38 -17z"/>
<path d="M13040 16461 c0 -34 36 -80 86 -111 72 -45 88 6 20 63 -25 20 -47 46
-51 57 -4 13 -15 20 -31 20 -20 0 -24 -5 -24 -29z"/>
<path d="M16522 16443 c-16 -27 -58 -86 -92 -133 -141 -194 -225 -368 -338
-707 -74 -222 -87 -273 -69 -290 28 -28 46 -3 83 115 143 462 261 711 444 943
46 58 56 85 40 104 -20 25 -36 17 -68 -32z"/>
<path d="M12037 16383 c-22 -21 19 -300 53 -363 12 -22 45 -27 53 -7 2 6 -9
66 -24 132 -16 66 -29 140 -30 165 -1 25 -6 53 -11 63 -9 17 -29 23 -41 10z"/>
<path d="M13176 16245 c-3 -8 -2 -25 3 -38 5 -12 11 -53 15 -92 11 -105 54
-314 76 -363 49 -109 213 -244 435 -355 100 -50 98 -47 157 -207 18 -50 29
-66 46 -68 44 -7 40 37 -15 178 -34 86 -52 104 -158 157 -180 90 -363 231
-399 308 -25 51 -63 215 -81 345 -8 63 -18 123 -21 133 -7 21 -50 23 -58 2z"/>
<path d="M16892 16225 c-99 -28 -164 -67 -243 -145 -118 -117 -330 -433 -443
-659 -101 -202 -367 -812 -364 -834 2 -16 10 -22 27 -22 22 0 39 34 196 385
235 528 271 595 469 880 154 222 232 291 375 334 70 21 114 20 174 -1 50 -18
76 -10 64 21 -18 45 -158 68 -255 41z"/>
<path d="M8097 16167 c-41 -10 -67 -23 -92 -47 -61 -59 -65 -77 -64 -282 1
-212 5 -233 39 -233 l25 0 -4 196 c-4 211 -1 228 51 276 28 27 113 45 188 41
41 -2 55 1 63 14 8 12 8 21 2 27 -17 17 -145 22 -208 8z"/>
<path d="M8395 16120 c-7 -12 3 -50 13 -50 4 0 993 -43 2197 -95 1926 -83
2192 -92 2205 -79 22 21 1 48 -41 52 -78 5 -4240 182 -4301 182 -37 0 -70 -5
-73 -10z"/>
<path d="M14234 16107 c-6 -17 31 -193 52 -248 19 -47 68 -133 93 -162 9 -11
24 -17 38 -14 17 3 25 -3 34 -26 12 -29 11 -32 -22 -56 -50 -36 -324 -310
-355 -353 -15 -21 -24 -44 -20 -53 8 -21 39 -19 61 5 16 17 20 18 38 5 12 -8
32 -15 44 -15 29 0 31 30 3 55 -19 18 -19 18 6 49 15 17 55 61 91 98 l64 67
32 -19 c64 -39 100 -9 47 40 -38 36 -26 47 16 15 18 -14 39 -25 47 -25 35 0
27 58 -11 79 -16 9 -16 11 0 27 15 15 18 14 47 -17 45 -50 41 -69 -26 -116
-32 -23 -67 -50 -77 -62 -24 -26 -30 -26 -66 0 -51 39 -83 -1 -38 -48 16 -18
19 -26 10 -35 -9 -9 -16 -8 -30 5 -41 38 -78 7 -47 -39 16 -25 16 -27 -12 -56
-15 -17 -56 -50 -91 -75 -54 -39 -63 -49 -58 -69 5 -19 -5 -35 -52 -82 l-59
-59 -23 43 c-20 36 -22 45 -10 59 9 11 16 13 24 5 5 -5 19 -10 29 -10 17 0 19
5 14 34 -4 24 -1 39 9 47 19 16 14 49 -10 63 -15 9 -20 7 -30 -9 -6 -10 -32
-42 -58 -69 -56 -59 -60 -84 -23 -154 14 -26 25 -52 25 -57 0 -6 9 -18 20 -27
11 -10 22 -30 25 -45 8 -37 18 -54 38 -67 24 -15 47 1 76 55 38 69 205 227
298 282 93 56 230 107 286 107 36 0 40 -3 55 -40 12 -32 20 -40 36 -38 17 2
21 9 19 38 -1 19 -2 54 -3 77 0 52 -26 73 -87 73 -39 0 -42 2 -32 18 10 15 7
28 -17 67 -24 41 -28 58 -26 111 3 60 2 63 -39 104 -23 24 -47 39 -55 36 -10
-4 -14 2 -14 18 0 33 -38 79 -60 73 -14 -3 -29 12 -60 61 -48 74 -75 146 -91
241 -6 36 -16 74 -21 84 -10 20 -46 23 -54 4z m382 -782 l31 -42 -91 -27 c-50
-15 -131 -47 -181 -71 -49 -24 -91 -42 -93 -41 -5 5 194 193 238 225 41 29 46
31 55 15 6 -9 24 -36 41 -59z m-467 -372 c-36 -38 -76 -81 -87 -97 -25 -32
-29 -19 -8 22 19 37 133 140 156 142 2 0 -25 -30 -61 -67z"/>
<path d="M15440 15954 c-212 -213 -479 -438 -574 -483 -42 -19 -53 -21 -77
-10 -23 9 -32 9 -44 -1 -20 -17 -19 -26 7 -50 41 -38 121 -22 219 44 84 56
298 245 462 406 128 126 157 160 157 183 0 49 -32 31 -150 -89z"/>
<path d="M17237 15953 c-13 -13 -6 -61 57 -376 40 -203 69 -324 79 -334 19
-19 47 -10 47 14 0 28 -129 655 -140 681 -9 21 -30 29 -43 15z"/>
<path d="M12960 15906 c0 -27 23 -37 112 -51 77 -12 118 -74 137 -205 26 -174
51 -827 51 -1336 0 -352 25 -1162 39 -1304 20 -191 32 -470 21 -490 -18 -34
18 -78 54 -64 8 3 17 11 19 18 6 15 -18 449 -33 601 -12 130 -28 698 -35 1290
-9 755 -27 1155 -60 1332 -30 158 -86 210 -247 228 -57 6 -58 6 -58 -19z"/>
<path d="M7973 15445 c-3 -10 63 -614 146 -1344 119 -1036 156 -1329 168
-1338 17 -13 39 -8 46 10 5 13 -287 2587 -300 2647 -6 26 -14 36 -31 38 -14 2
-25 -3 -29 -13z"/>
<path d="M14783 15074 c-3 -9 5 -26 20 -42 14 -15 63 -94 108 -177 98 -179
220 -367 320 -490 40 -49 127 -157 193 -240 203 -253 355 -404 591 -587 61
-47 124 -101 142 -119 38 -40 76 -121 97 -204 17 -68 56 -359 56 -421 0 -61
40 -88 61 -40 12 26 -18 319 -48 456 -37 177 -76 233 -272 385 -81 63 -191
156 -245 207 l-98 93 16 39 c12 30 16 73 16 192 0 172 9 228 106 668 30 136
54 258 52 270 -2 15 -10 21 -27 21 -22 0 -25 -9 -68 -195 -124 -547 -127 -561
-128 -740 -1 -91 -5 -172 -9 -179 -12 -19 -37 8 -215 227 -290 360 -357 455
-514 737 -31 55 -68 112 -82 128 -29 30 -62 36 -72 11z"/>
<path d="M17085 15014 c-11 -9 -72 -42 -135 -74 -108 -54 -180 -84 -545 -225
-266 -103 -448 -204 -552 -305 -59 -58 -82 -102 -63 -125 20 -24 38 -18 64 23
69 109 255 219 607 356 374 147 615 258 669 308 41 39 0 78 -45 42z"/>
<path d="M14066 14664 c-4 -9 -1 -23 5 -30 14 -17 129 -471 174 -684 18 -91
63 -282 99 -425 35 -143 81 -332 101 -420 59 -253 101 -347 235 -510 59 -72
103 -129 250 -325 48 -63 141 -180 208 -260 92 -110 142 -182 209 -299 103
-180 118 -201 144 -201 32 0 33 26 4 77 -15 27 -50 89 -78 138 -78 141 -107
185 -167 255 -104 121 -186 224 -327 410 -77 102 -172 226 -212 275 -108 134
-141 211 -202 465 -28 118 -77 319 -109 445 -32 127 -70 290 -85 364 -15 74
-42 191 -61 260 -19 69 -51 191 -70 271 -46 186 -56 210 -87 210 -14 0 -28 -7
-31 -16z"/>
<path d="M10705 14569 c-11 -7 -35 -26 -53 -43 -60 -56 -79 -116 -43 -136 32
-17 65 -12 112 19 57 36 91 89 87 133 -3 31 -6 33 -43 35 -22 2 -49 -2 -60 -8z
m19 -80 c-10 -11 -28 -26 -39 -31 -14 -8 -12 -2 9 21 33 34 61 44 30 10z"/>
<path d="M16255 14446 c-164 -55 -237 -91 -350 -176 -106 -80 -128 -102 -123
-127 7 -35 37 -23 139 57 121 94 218 145 379 196 122 39 146 53 137 78 -9 24
-40 19 -182 -28z"/>
<path d="M10700 14377 c-40 -14 -50 -41 -22 -56 14 -8 30 -7 52 1 27 9 39 8
66 -7 58 -31 86 1 40 44 -29 27 -88 35 -136 18z"/>
<path d="M10439 14357 c-19 -12 -44 -42 -57 -67 -21 -40 -23 -54 -18 -124 7
-100 42 -179 115 -258 56 -61 83 -71 135 -47 20 10 33 8 70 -10 28 -14 59 -21
83 -19 35 3 42 9 89 79 28 42 54 83 57 93 5 11 -7 30 -38 62 -50 51 -63 85
-45 118 16 30 10 60 -13 64 -25 5 -44 -13 -57 -53 -15 -46 1 -101 43 -150 l34
-39 -35 -56 c-19 -30 -36 -57 -38 -59 -1 -1 -28 9 -60 24 -53 25 -60 26 -102
14 l-46 -13 -36 41 c-78 88 -117 222 -87 295 20 47 58 73 95 63 15 -4 41 -7
57 -8 44 -3 41 32 -5 55 -48 24 -100 23 -141 -5z"/>
<path d="M16267 13713 c-4 -3 -7 -15 -7 -25 0 -14 17 -27 58 -45 128 -57 238
-93 354 -118 68 -14 157 -34 198 -45 41 -10 123 -28 181 -39 59 -12 146 -32
195 -46 161 -46 532 -242 571 -301 20 -32 57 -29 61 4 7 46 -115 131 -365 257
-161 80 -242 108 -468 156 -485 104 -501 108 -658 176 -78 33 -107 39 -120 26z"/>
<path d="M5581 13036 c-15 -17 -9 -44 11 -51 7 -2 593 -70 1302 -150 1111
-127 1290 -145 1303 -133 18 19 7 47 -21 53 -11 2 -581 68 -1266 145 -685 78
-1261 144 -1280 147 -26 3 -40 0 -49 -11z"/>
<path d="M5305 12949 c-17 -4 -1209 -274 -2650 -599 -1441 -325 -2628 -593
-2637 -596 -23 -7 -25 -64 -3 -64 9 0 935 207 2058 461 1123 253 2323 523
2667 601 344 77 631 146 638 153 11 10 11 17 3 34 -12 22 -28 24 -76 10z"/>
<path d="M17744 12770 c-36 -14 -316 -40 -438 -40 -71 0 -131 5 -162 15 -27 8
-57 12 -66 9 -29 -9 -21 -42 15 -61 69 -38 643 -13 695 30 17 13 11 51 -8 54
-8 1 -25 -2 -36 -7z"/>
<path d="M8317 12703 c-25 -24 11 -92 63 -122 52 -29 90 -28 90 2 0 18 -10 28
-41 43 -29 13 -46 29 -56 51 -12 31 -39 43 -56 26z"/>
<path d="M17320 12585 c-6 -8 -9 -23 -5 -35 7 -22 -9 -273 -25 -400 -6 -41
-22 -117 -36 -168 -21 -74 -24 -95 -14 -107 7 -8 16 -15 21 -15 18 0 43 54 66
143 31 122 64 556 44 581 -17 20 -35 20 -51 1z"/>
<path d="M8584 12555 c-17 -43 6 -50 231 -60 172 -8 194 -12 188 -35 -4 -13 6
-25 35 -44 23 -14 73 -55 114 -91 74 -68 101 -77 106 -37 4 24 -48 77 -151
155 l-51 38 75 -6 c41 -3 1001 -66 2134 -140 1811 -118 2062 -132 2075 -119
19 19 2 48 -31 52 -58 6 -4640 302 -4678 302 -28 0 -44 -5 -47 -15z"/>
<path d="M17000 12560 c-10 -6 -12 -44 -6 -187 11 -261 17 -307 40 -311 37 -8
39 9 27 225 -7 114 -14 222 -17 240 -5 33 -22 46 -44 33z"/>
<path d="M13346 12404 c-3 -9 -6 -38 -6 -65 0 -56 22 -77 46 -44 13 17 15 17
54 -10 55 -38 520 -411 545 -437 28 -29 2 -11 -284 196 -187 135 -237 167
-250 159 -38 -24 -23 -42 131 -156 338 -251 634 -447 674 -447 25 0 44 26 36
50 -7 23 -77 93 -175 177 -48 41 -86 77 -84 79 2 2 98 -8 213 -22 234 -28 267
-28 272 0 2 10 0 22 -5 27 -9 9 -486 69 -548 69 -23 0 -48 14 -96 53 -35 29
-155 123 -266 210 -111 86 -205 162 -208 167 -10 16 -42 12 -49 -6z"/>
<path d="M9364 12295 c-12 -30 4 -42 63 -48 32 -3 805 -56 1718 -118 l1660
-112 40 -31 c22 -17 47 -39 55 -49 17 -20 45 -15 55 10 6 18 -69 94 -118 120
-22 11 -429 42 -1700 129 -920 62 -1694 114 -1720 114 -33 0 -49 -5 -53 -15z"/>
<path d="M13727 12203 c-10 -9 -9 -41 1 -47 5 -3 309 -44 676 -92 585 -76 669
-85 682 -72 21 21 7 47 -29 53 -72 12 -1273 165 -1297 165 -15 0 -30 -3 -33
-7z"/>
<path d="M9312 12093 c-17 -43 -42 -113 -57 -155 l-27 -77 -162 -59 c-88 -33
-345 -126 -571 -207 -225 -81 -415 -154 -422 -162 -13 -17 -8 -39 12 -47 8 -3
257 83 556 190 298 107 543 193 545 191 3 -2 -14 -53 -36 -113 -77 -205 -84
-244 -40 -244 26 0 17 -21 169 397 66 183 118 339 115 348 -4 8 -17 15 -29 15
-20 0 -28 -12 -53 -77z"/>
<path d="M13023 12161 c-34 -15 -46 -46 -27 -66 10 -10 23 -13 33 -9 76 32
147 25 198 -21 l28 -25 -25 -21 c-20 -17 -35 -20 -75 -17 -28 2 -66 12 -84 21
-41 21 -55 21 -70 3 -33 -39 58 -90 159 -90 100 0 150 33 150 99 0 48 -25 81
-81 111 -39 20 -171 29 -206 15z"/>
<path d="M12761 11991 c-15 -10 -173 -914 -169 -966 3 -30 31 -46 49 -28 15
15 172 966 162 982 -12 19 -25 23 -42 12z"/>
<path d="M16577 11899 c-20 -12 -22 -32 -4 -47 6 -5 167 -33 357 -61 308 -46
346 -49 359 -36 12 12 13 20 5 33 -9 14 -72 26 -325 64 -173 25 -328 48 -344
51 -17 3 -39 1 -48 -4z"/>
<path d="M14569 11877 c-39 -26 -58 -70 -58 -138 -1 -58 -14 -75 -76 -98 -86
-33 -55 -79 35 -52 62 18 90 58 104 147 10 69 15 81 39 94 24 14 34 13 114 -8
209 -55 227 -90 53 -101 -74 -5 -85 -9 -88 -25 -6 -32 26 -46 103 -46 62 0 78
4 125 33 67 39 75 65 33 109 -34 37 -88 61 -193 88 -103 26 -149 26 -191 -3z"/>
<path d="M12827 11866 c-3 -8 -2 -30 4 -48 5 -18 21 -103 35 -188 14 -85 37
-209 51 -275 l25 -120 -24 -17 c-12 -10 -63 -36 -113 -59 -124 -57 -120 -54
-123 -72 -2 -10 7 -21 22 -28 23 -11 38 -6 133 40 112 54 149 81 163 117 6 14
-2 67 -20 150 -16 71 -40 197 -55 281 -32 189 -43 227 -71 231 -12 2 -24 -4
-27 -12z"/>
<path d="M12974 11806 c-3 -8 -4 -23 -2 -33 3 -16 12 -18 73 -15 88 4 290 -13
384 -33 57 -12 81 -23 126 -60 58 -46 89 -56 99 -30 8 23 -1 36 -60 85 -67 55
-140 75 -329 90 -190 15 -284 13 -291 -4z"/>
<path d="M17356 11748 c-11 -15 -12 -26 -5 -40 11 -20 34 -24 45 -6 10 16 34
-20 34 -51 0 -14 -7 -48 -15 -75 -20 -65 -19 -115 1 -123 24 -9 37 11 56 90
20 82 22 125 9 160 -24 62 -95 88 -125 45z"/>
<path d="M14593 11673 c-5 -12 2 -23 22 -37 51 -37 106 -89 103 -98 -3 -8
-135 -94 -317 -206 -51 -31 -137 -88 -190 -126 -53 -38 -141 -97 -196 -132
-55 -34 -145 -97 -200 -138 -107 -81 -185 -126 -221 -126 -26 0 -48 -24 -40
-45 4 -10 19 -15 50 -15 52 0 130 38 214 105 31 24 103 75 160 112 57 38 154
104 215 147 62 44 150 103 197 131 47 29 121 77 165 107 44 30 101 67 127 82
128 74 129 139 3 226 -49 34 -82 38 -92 13z"/>
<path d="M13060 11635 c-10 -12 -11 -21 -3 -33 8 -14 95 -27 509 -74 274 -32
517 -56 539 -55 30 1 41 7 43 21 2 10 0 22 -5 27 -5 5 -229 34 -499 64 -269
30 -507 57 -530 60 -31 4 -44 2 -54 -10z"/>
<path d="M15539 10689 c-899 -529 -1654 -974 -1679 -989 -34 -20 -45 -33 -45
-51 0 -16 6 -25 20 -27 12 -2 209 108 490 274 1145 674 2245 1322 2535 1492
173 101 324 193 335 203 15 15 17 23 9 36 -6 9 -15 18 -20 20 -6 2 -746 -429
-1645 -958z"/>
<path d="M17280 11406 c-20 -13 -794 -477 -1720 -1031 -927 -554 -1694 -1016
-1706 -1026 -12 -11 -35 -19 -55 -19 -46 0 -155 17 -202 32 -43 13 -63 2 -53
-30 8 -25 42 -38 133 -51 157 -24 154 -24 355 100 68 42 566 341 1108 665
2376 1421 2225 1329 2225 1355 0 33 -39 35 -85 5z"/>
<path d="M7970 11401 c-84 -40 -52 -172 43 -171 51 1 66 52 17 58 -52 8 -67
45 -25 64 16 7 25 19 25 34 0 30 -19 35 -60 15z"/>
<path d="M84 11385 c-9 -23 3 -44 28 -50 13 -2 1161 -156 2553 -340 1392 -185
4424 -588 6740 -895 3759 -500 4211 -558 4225 -545 45 45 173 26 -2881 432
-8200 1090 -10635 1413 -10647 1413 -7 0 -15 -7 -18 -15z"/>
<path d="M17445 11370 c-3 -5 -21 -231 -40 -502 -394 -5628 -677 -9704 -678
-9783 l-2 -100 25 0 c18 0 26 7 32 25 3 14 57 752 118 1640 206 3002 500 7225
506 7270 l6 45 24 -30 c14 -17 54 -74 90 -128 66 -100 95 -120 102 -69 4 30
-110 203 -171 259 l-44 41 23 323 c13 178 23 342 24 364 l0 40 156 -155 c216
-216 200 -184 180 -343 -9 -73 -21 -206 -26 -296 -5 -90 -11 -166 -13 -168 -6
-5 -75 233 -114 392 -19 77 -40 146 -48 154 -17 17 -45 7 -45 -16 0 -45 116
-473 178 -661 98 -292 106 -323 98 -373 -4 -24 -27 -90 -52 -146 -25 -57 -55
-145 -69 -196 -20 -80 -28 -96 -60 -124 -25 -21 -57 -37 -95 -45 -47 -11 -68
-23 -115 -66 -59 -56 -68 -84 -26 -90 17 -3 36 9 70 41 32 31 57 46 83 50 56
8 103 34 146 81 32 34 42 57 60 128 11 47 41 133 66 191 67 153 72 189 41 308
-13 53 -39 136 -55 184 -29 80 -30 88 -15 99 14 10 19 49 31 241 7 125 18 261
24 302 5 41 10 100 10 131 l0 56 -163 161 c-89 89 -179 182 -200 207 l-37 45
17 245 c9 134 14 252 10 261 -7 18 -42 23 -52 7z"/>
<path d="M9174 11335 c-11 -28 5 -44 48 -49 128 -18 3202 -305 3209 -300 5 3
9 16 9 29 0 17 -7 26 -22 30 -28 6 -3175 305 -3212 305 -15 0 -29 -7 -32 -15z"/>
<path d="M8140 11266 c-8 -11 -9 -20 -2 -33 9 -16 267 -41 2549 -250 1396
-127 2556 -233 2579 -234 22 -1 46 1 52 5 14 8 16 42 4 50 -6 4 -5133 476
-5166 476 -2 0 -9 -7 -16 -14z"/>
<path d="M234 11175 c-9 -23 3 -44 28 -49 13 -3 406 -57 873 -120 468 -64
3361 -460 6430 -880 3069 -421 5597 -766 5619 -768 46 -4 71 21 46 46 -11 10
-349 60 -1155 170 -627 86 -3536 485 -6465 886 -2929 402 -5336 730 -5348 730
-13 0 -25 -7 -28 -15z"/>
<path d="M16725 10599 c-536 -348 -940 -609 -1705 -1103 -179 -115 -482 -311
-675 -436 -192 -124 -365 -235 -383 -245 -49 -29 -56 -75 -10 -75 12 0 249
147 527 327 856 553 1153 744 1236 798 44 29 222 143 395 255 173 112 468 302
655 423 187 121 394 255 460 297 98 63 120 82 120 101 0 57 -36 37 -620 -342z"/>
<path d="M0 10676 c0 -23 5 -36 13 -36 7 0 1889 -272 4182 -604 2294 -333
5322 -772 6730 -976 2376 -344 2560 -370 2572 -354 8 11 9 23 4 33 -10 16 338
-35 -9431 1381 -2203 319 -4020 583 -4037 586 -32 6 -33 5 -33 -30z"/>
<path d="M124 10376 c-6 -15 680 -10214 692 -10284 6 -38 29 -52 50 -30 13 13
-26 627 -330 5124 -190 2810 -349 5129 -353 5154 -7 36 -12 46 -31 48 -13 2
-24 -3 -28 -12z"/>
<path d="M16583 10348 c-6 -7 -31 -218 -57 -468 -26 -250 -49 -477 -53 -503
l-6 -49 -26 48 c-27 50 -56 68 -67 40 -3 -8 6 -44 20 -80 50 -124 72 -298 102
-787 l15 -266 -63 -61 -63 -60 -3 -76 c-4 -63 -1 -77 12 -82 29 -11 46 15 46
71 0 43 5 60 26 84 14 17 30 31 34 31 5 0 10 -72 12 -159 3 -141 1 -158 -12
-147 -117 98 -402 362 -420 390 -30 43 -49 52 -68 32 -29 -29 28 -94 273 -318
209 -191 319 -305 335 -348 18 -46 29 -60 50 -60 9 0 25 -8 34 -19 15 -16 15
-19 1 -24 -8 -4 -15 -18 -15 -31 0 -27 -24 -37 -120 -50 -35 -5 -55 -16 -86
-46 l-41 -39 -28 52 c-15 28 -48 89 -72 134 l-44 82 31 16 c45 23 70 70 70
131 0 66 -25 103 -58 85 -23 -12 -29 -35 -12 -46 6 -3 10 -22 10 -41 0 -49
-34 -80 -96 -90 -39 -5 -57 -15 -86 -45 -44 -46 -58 -90 -58 -181 0 -58 5 -77
39 -142 36 -70 38 -79 29 -118 -14 -64 -99 -261 -109 -251 -4 4 -42 111 -84
238 -80 238 -155 513 -155 566 0 34 -22 48 -46 28 -13 -10 -14 -24 -9 -68 15
-120 133 -530 223 -771 38 -101 39 -106 25 -145 -23 -64 -130 -434 -147 -507
-25 -107 -37 -266 -39 -528 l-3 -245 -34 -90 c-18 -49 -55 -162 -81 -250 -25
-88 -77 -259 -113 -380 -109 -357 -219 -837 -251 -1097 -57 -463 -75 -632 -85
-773 -10 -147 -44 -479 -70 -685 -10 -76 -34 -191 -60 -290 -9 -34 -10 -35
-63 -35 -46 -1 -61 -6 -112 -44 -53 -38 -65 -42 -101 -37 -47 6 -198 68 -225
91 -23 22 -53 15 -57 -11 -4 -31 44 -67 140 -104 88 -33 160 -47 200 -37 14 4
46 23 72 42 41 32 116 58 116 41 0 -3 -16 -58 -35 -122 -39 -128 -42 -152 -20
-160 28 -11 43 16 85 146 39 119 44 129 69 132 34 4 43 47 11 55 -12 3 -19 11
-16 19 19 48 60 287 76 439 11 99 26 239 34 310 8 72 20 200 25 286 6 85 24
265 41 400 16 134 35 285 41 334 40 338 223 1045 432 1675 l52 155 -2 185 c-3
228 12 449 37 555 22 93 127 455 134 463 3 3 9 -4 12 -14 4 -10 29 -70 55
-132 47 -110 48 -115 33 -144 -33 -63 -83 -206 -98 -278 -8 -42 -20 -152 -26
-245 -14 -235 -33 -348 -84 -505 -89 -272 -147 -471 -210 -715 -35 -137 -88
-338 -116 -445 -81 -306 -101 -426 -135 -845 -21 -257 -46 -445 -105 -802 -85
-510 -117 -795 -103 -918 8 -66 9 -70 33 -70 l25 0 5 140 5 140 59 7 c33 4 62
5 65 2 3 -2 -3 -50 -12 -105 -10 -55 -15 -104 -12 -110 8 -12 42 -12 49 0 4 5
15 65 26 133 11 67 23 133 25 144 3 15 22 28 59 44 61 25 91 52 82 75 -10 27
-32 27 -71 1 -66 -45 -68 -42 -61 96 18 317 41 516 81 683 55 234 66 349 70
705 3 325 29 611 67 725 11 33 74 150 140 260 125 206 161 276 178 348 6 23
15 184 20 357 6 205 14 340 24 387 22 104 77 262 136 388 l51 110 109 -214
c59 -117 117 -223 128 -234 22 -22 52 -17 52 8 0 8 -56 127 -125 264 l-124
249 48 109 c85 189 83 179 77 432 -5 197 -4 227 11 252 14 23 14 30 4 43 -18
21 -34 20 -55 -3 -30 -33 -34 -82 -25 -281 9 -218 5 -243 -60 -387 l-40 -88
-19 45 c-11 25 -29 65 -40 89 l-20 44 59 117 c90 177 94 225 43 465 -14 66
-15 94 -6 175 8 76 8 98 -3 109 -20 20 -41 7 -49 -30 -19 -99 -18 -196 4 -301
32 -154 27 -240 -22 -339 -64 -129 -57 -131 -122 27 l-58 139 42 100 c70 165
90 223 96 278 5 47 2 59 -35 130 -47 89 -53 145 -22 212 17 38 47 73 55 64 7
-8 196 -368 269 -514 135 -271 407 -875 407 -906 0 -10 -13 -37 -29 -61 -42
-63 -167 -288 -196 -355 -14 -31 -53 -94 -85 -139 -105 -144 -166 -274 -190
-402 -6 -31 -15 -149 -20 -262 -6 -113 -15 -232 -21 -265 -11 -60 -73 -234
-192 -535 -35 -91 -82 -210 -103 -265 l-39 -100 -3 115 c-2 63 2 186 8 272 12
168 7 198 -30 198 -11 0 -20 -3 -20 -7 -1 -5 -4 -57 -8 -118 -14 -217 -7 -739
12 -1005 28 -370 29 -356 -28 -480 -156 -340 -206 -578 -227 -1092 -6 -158 -9
-294 -6 -302 8 -22 43 -20 52 2 3 9 11 125 16 257 20 503 70 765 199 1045 80
175 83 187 76 294 -3 50 -10 174 -16 276 -5 102 -14 236 -19 299 -8 106 -8
116 10 130 10 9 46 88 79 176 34 88 83 215 110 282 82 202 170 443 186 507 8
34 18 144 24 246 5 102 12 214 16 248 14 145 75 291 184 441 29 40 86 138 127
218 41 80 103 193 140 250 57 92 65 110 60 141 -8 59 -302 710 -438 970 -61
117 -76 152 -63 152 10 0 33 12 52 27 23 17 55 29 88 34 71 10 121 35 132 67
8 26 9 26 57 -38 85 -116 107 -185 89 -279 -6 -28 -17 -37 -83 -71 -88 -44
-124 -78 -119 -112 4 -33 41 -36 62 -3 10 14 58 46 117 75 100 51 120 69 101
93 -5 6 -12 53 -14 102 -4 108 -10 119 -182 340 -77 99 -122 168 -154 234
l-44 94 -3 251 c-4 321 -26 662 -61 935 -13 101 -13 125 -3 132 19 11 133
1107 117 1126 -13 16 -33 17 -45 1z m-328 -4033 l38 -85 -67 -142 c-36 -79
-79 -181 -95 -228 -16 -47 -30 -76 -30 -65 -2 76 21 330 33 375 15 56 76 230
80 230 2 0 20 -38 41 -85z m-201 -1055 c-2 -133 -8 -267 -13 -299 -13 -77 -51
-160 -148 -316 -45 -71 -100 -161 -123 -200 -23 -38 -39 -61 -35 -50 3 11 35
132 70 270 35 137 87 327 115 420 50 164 132 415 136 415 1 0 0 -108 -2 -240z
m-379 -1191 c-11 -79 -20 -256 -25 -489 -9 -388 -15 -449 -70 -695 -38 -166
-56 -310 -70 -557 -18 -318 -20 -327 -41 -338 -10 -6 -39 -14 -63 -19 l-44 -8
4 31 c2 17 11 87 19 156 9 69 38 258 65 420 68 408 88 565 115 895 22 269 50
470 87 618 18 71 34 125 36 119 1 -5 -4 -65 -13 -133z"/>
<path d="M16166 9779 c-92 -81 -269 -337 -531 -769 -129 -213 -465 -784 -509
-867 -30 -55 -29 -83 3 -83 22 0 35 21 281 440 461 785 678 1121 793 1227 57
52 62 61 47 78 -19 23 -33 18 -84 -26z"/>
<path d="M5846 9744 c-10 -9 -16 -34 -17 -62 0 -26 -89 -1365 -198 -2977 -120
-1784 -194 -2937 -189 -2947 10 -21 46 -24 53 -5 4 9 405 5940 405 5980 0 3
-9 11 -19 17 -15 7 -23 6 -35 -6z"/>
<path d="M17452 9718 c-22 -22 -13 -69 53 -266 90 -268 90 -260 22 -352 -30
-41 -72 -106 -93 -145 -20 -38 -51 -87 -67 -107 -32 -42 -32 -71 -2 -76 29 -4
66 38 121 138 25 47 71 118 100 159 47 63 54 80 54 119 0 56 -26 151 -86 313
-30 79 -47 142 -48 174 -1 42 -4 50 -21 53 -11 1 -26 -3 -33 -10z"/>
<path d="M6515 9580 c-7 -12 -397 -6250 -393 -6295 3 -25 7 -30 28 -30 22 0
26 6 32 45 11 61 390 6212 386 6253 -2 24 -8 33 -25 35 -11 2 -24 -2 -28 -8z"/>
<path d="M8262 9348 c-7 -7 -12 -42 -12 -87 0 -42 -9 -161 -21 -266 -25 -240
-28 -464 -5 -560 9 -38 43 -149 76 -245 35 -105 63 -207 69 -255 6 -44 11
-201 10 -350 0 -284 9 -454 41 -775 44 -428 96 -798 160 -1125 88 -450 105
-563 185 -1180 58 -454 112 -801 145 -925 12 -48 16 -78 10 -84 -28 -28 9 -66
63 -66 20 0 42 -11 170 -85 46 -26 54 -27 135 -23 63 4 146 22 296 63 196 53
212 56 235 42 14 -8 60 -20 101 -26 41 -7 76 -14 78 -16 2 -2 -4 -15 -13 -29
-21 -31 -22 -31 -208 -10 -233 26 -345 9 -431 -67 -43 -38 -74 -98 -61 -119 3
-5 26 -19 52 -30 62 -27 190 -158 231 -236 18 -34 32 -64 32 -68 0 -3 -53 40
-117 95 -166 143 -278 195 -278 129 0 -20 11 -30 62 -55 88 -43 277 -206 304
-262 12 -24 19 -46 16 -49 -3 -3 -31 16 -63 43 -178 144 -271 193 -370 193
-47 0 -57 -3 -61 -19 -3 -12 -11 -17 -19 -14 -11 4 -11 9 0 31 7 15 21 52 31
82 22 67 31 80 60 80 35 0 48 25 49 93 1 60 0 62 -24 62 -23 0 -25 -4 -28 -47
-3 -42 -6 -47 -31 -53 -40 -9 -55 -29 -85 -115 -32 -88 -37 -96 -117 -192 -84
-101 -171 -173 -261 -219 -69 -35 -77 -42 -90 -81 -11 -31 -21 -44 -39 -48
-27 -7 -38 -38 -17 -51 42 -27 104 3 114 57 6 31 14 39 68 66 69 34 180 122
231 180 l33 39 7 -32 c4 -18 24 -78 45 -134 35 -93 74 -244 65 -253 -9 -10
-71 49 -130 125 -78 100 -97 111 -159 93 -53 -15 -86 -43 -86 -73 0 -26 49
-77 97 -101 27 -13 76 -74 118 -145 4 -7 -28 16 -70 52 -91 76 -171 120 -212
115 -31 -3 -40 -35 -13 -48 79 -37 111 -55 149 -85 27 -22 37 -35 27 -35 -9 0
-21 -12 -27 -27 -23 -62 19 -165 114 -276 l67 -79 -17 -30 c-30 -49 -34 -49
-123 -8 -47 22 -99 40 -117 40 -17 0 -84 -21 -149 -46 -205 -80 -382 -114
-595 -114 -181 0 -214 52 -126 202 44 76 95 113 194 143 108 33 228 88 320
147 37 24 83 50 101 57 27 11 33 19 30 40 -2 16 -10 27 -22 29 -22 5 -42 -5
-151 -72 -102 -63 -200 -108 -295 -136 -96 -28 -150 -59 -194 -113 -53 -65
-96 -163 -96 -221 0 -43 4 -53 38 -86 55 -55 108 -64 314 -50 192 12 330 42
492 106 61 24 123 44 138 44 15 0 61 -16 104 -35 42 -19 87 -35 99 -35 46 0
115 85 115 143 0 14 -28 55 -75 110 -85 99 -107 141 -110 211 l-2 50 63 -67
c66 -70 95 -82 114 -47 31 58 -68 257 -157 315 -17 11 -39 25 -49 32 -17 10
-17 13 -4 22 29 20 47 10 94 -54 54 -73 159 -173 192 -181 12 -3 32 -1 43 6
18 9 21 20 21 69 0 66 -35 216 -73 309 -14 34 -24 62 -22 62 2 0 53 -55 115
-122 132 -145 161 -168 213 -168 67 0 107 31 107 82 0 19 -261 282 -333 335
l-31 23 40 0 c21 0 62 -11 89 -24 49 -23 175 -113 245 -175 33 -29 84 -51 120
-51 24 0 40 21 41 54 0 25 6 17 31 -44 23 -57 32 -95 36 -160 5 -88 13 -110
41 -110 14 0 16 -13 16 -87 0 -75 3 -93 23 -120 32 -44 73 -56 159 -43 94 13
101 16 282 122 161 94 319 200 406 272 l49 41 -59 -70 c-32 -38 -67 -73 -77
-77 -31 -12 -20 -52 15 -56 23 -3 36 5 65 39 20 23 78 88 127 143 105 117 125
144 125 169 0 10 53 71 118 135 151 150 254 278 250 312 -5 46 -32 33 -95 -47
-103 -132 -170 -200 -373 -376 -214 -186 -366 -299 -537 -400 -190 -113 -242
-136 -311 -143 -87 -9 -102 5 -102 97 0 84 26 157 86 245 46 67 56 110 27 121
-11 4 -23 -3 -38 -21 l-21 -27 -12 63 c-20 107 -63 178 -176 285 l-101 96 105
-70 c172 -115 267 -166 319 -171 44 -4 49 -2 76 29 44 53 60 101 56 176 -2 46
-94 124 -232 195 l-64 33 -210 1 c-115 1 -228 2 -250 3 l-40 1 25 20 c65 51
186 61 425 35 76 -9 147 -13 159 -9 12 3 32 19 46 35 22 27 32 30 85 31 48 1
81 -7 165 -40 58 -23 141 -63 185 -88 175 -102 224 -124 273 -124 88 1 187 65
350 227 84 84 93 96 90 125 -2 28 -7 33 -28 33 -18 0 -26 -6 -28 -22 -4 -29
-170 -186 -263 -249 -97 -67 -124 -66 -249 5 -173 98 -234 129 -310 156 -41
15 -91 37 -110 50 -24 16 -69 29 -147 42 -62 10 -113 20 -113 23 0 9 268 89
485 145 272 70 395 87 601 83 211 -3 217 2 173 142 -11 36 -27 110 -35 164
-17 115 -18 117 -84 192 -58 66 -64 83 -58 162 3 44 11 68 36 104 23 33 32 58
32 87 0 45 -12 64 -197 307 -100 131 -110 149 -95 160 15 11 15 18 3 75 -8 35
-16 73 -18 85 -3 14 8 36 36 68 23 26 41 51 41 56 0 30 -69 133 -165 245 -61
72 -118 137 -127 145 -11 12 -16 50 -21 165 -4 105 -14 186 -32 270 -54 248
-65 314 -77 467 -9 124 -9 181 0 266 21 190 19 196 -94 312 -74 76 -121 154
-131 214 -5 33 -3 35 65 75 71 41 126 95 143 138 5 13 9 75 9 137 0 118 -9
146 -45 132 -12 -4 -15 -26 -15 -116 0 -148 -21 -185 -140 -245 -69 -35 -93
-70 -86 -120 12 -77 69 -176 145 -254 97 -98 103 -113 91 -198 -13 -90 -13
-330 1 -451 6 -53 28 -178 49 -278 36 -167 66 -389 58 -429 -2 -11 -26 17 -70
81 -36 55 -158 227 -269 384 -485 683 -549 774 -654 935 -62 94 -167 262 -235
375 -67 113 -131 216 -142 230 -47 61 -91 101 -106 98 -31 -6 -24 -36 20 -90
24 -30 114 -171 200 -315 86 -144 198 -323 249 -400 108 -163 912 -1297 943
-1331 14 -16 27 -21 42 -18 20 5 22 2 22 -37 -1 -54 7 -69 37 -65 18 2 43 -22
130 -125 128 -153 136 -172 95 -229 -33 -44 -39 -101 -20 -167 5 -19 8 -36 6
-38 -11 -11 -479 625 -684 930 -61 90 -117 169 -126 176 -19 16 -46 8 -46 -14
0 -45 524 -790 795 -1130 142 -179 292 -375 328 -430 29 -43 29 -43 10 -75
-52 -91 -53 -94 -53 -183 0 -97 9 -124 60 -172 50 -48 67 -84 79 -172 7 -45
21 -113 31 -152 11 -39 20 -72 20 -74 0 -2 -78 -4 -172 -4 -114 0 -207 -6
-272 -17 -132 -22 -432 -98 -586 -148 -69 -22 -201 -59 -295 -83 -93 -24 -231
-60 -305 -80 -240 -66 -283 -65 -383 4 -25 16 -62 36 -84 42 -37 12 -41 17
-56 68 -43 146 -83 391 -157 966 -71 550 -102 753 -165 1080 -77 397 -119 671
-164 1080 -43 386 -53 541 -56 895 -3 389 -8 435 -65 595 -65 181 -90 266
-101 337 -13 85 -7 312 16 518 16 151 21 312 11 329 -9 14 -29 14 -44 -1z
m1641 -6222 c76 -35 180 -108 196 -138 13 -22 13 -32 2 -65 -7 -21 -21 -49
-30 -62 l-18 -23 -49 23 -49 23 36 4 c46 4 74 32 65 66 -8 33 -95 97 -216 160
l-95 49 53 -6 c30 -4 77 -17 105 -31z m-117 -61 c72 -33 187 -105 169 -105 -6
0 -55 22 -110 49 -180 89 -230 136 -59 56z m4 -330 c37 -75 55 -180 40 -235
-16 -59 -26 -56 -39 16 -13 72 -45 157 -116 309 l-46 100 66 -65 c41 -40 77
-88 95 -125z m-518 -95 c134 -129 147 -145 128 -152 -12 -4 -29 -4 -39 2 -10
5 -71 67 -135 138 -125 137 -158 167 -200 178 -21 5 -24 9 -15 20 21 25 106
-35 261 -186z"/>
<path d="M15132 9283 c-46 -65 -517 -999 -605 -1199 -85 -196 -157 -310 -157
-249 0 7 -18 50 -39 94 -32 66 -41 97 -46 165 -7 81 -6 89 40 233 62 196 96
282 199 507 92 199 102 241 57 241 -19 0 -26 -8 -36 -40 -7 -22 -51 -121 -98
-220 -79 -169 -146 -333 -162 -398 -5 -19 -11 -25 -18 -18 -6 6 -6 50 3 133
19 176 18 192 -3 196 -41 8 -70 -171 -65 -413 1 -77 -1 -165 -6 -195 -8 -54
-6 -58 50 -170 31 -63 60 -131 63 -150 4 -22 14 -38 26 -44 18 -8 20 -16 17
-71 -3 -42 4 -101 22 -184 42 -197 34 -298 -35 -412 -49 -82 -50 -116 -9 -279
17 -65 30 -130 30 -144 0 -25 -12 -59 -120 -351 -29 -77 -67 -200 -86 -274
-18 -74 -36 -136 -39 -139 -3 -3 -3 39 0 94 3 54 15 701 27 1437 20 1252 20
1339 5 1355 -15 15 -18 15 -33 1 -14 -15 -24 -472 -90 -4240 -40 -2323 -74
-4297 -74 -4386 l0 -163 29 0 29 0 6 243 c4 133 27 1413 52 2844 l44 2602 34
88 c19 48 48 142 64 208 59 235 146 469 197 528 19 22 56 81 81 131 101 197
192 345 358 581 123 175 405 546 459 602 32 34 31 63 -2 63 -26 0 -37 -11
-218 -238 -283 -354 -531 -720 -629 -924 -20 -42 -34 -49 -34 -18 0 12 -14 77
-32 147 l-32 125 28 47 c48 81 65 125 77 200 13 84 8 135 -27 310 -31 152 -28
166 55 316 33 58 76 145 96 193 46 106 457 939 549 1112 36 68 64 130 62 137
-9 22 -44 14 -64 -14z"/>
<path d="M8795 9236 c-34 -25 -12 -46 50 -46 33 0 234 -40 508 -101 635 -141
687 -151 703 -138 21 17 17 38 -9 48 -26 10 -414 97 -855 191 -289 61 -364 70
-397 46z"/>
<path d="M16232 9168 c-7 -7 -12 -18 -12 -25 0 -29 -218 -406 -326 -563 -39
-58 -87 -136 -107 -175 -45 -91 -114 -304 -172 -535 -25 -102 -86 -329 -135
-505 -114 -410 -185 -680 -360 -1360 -300 -1168 -308 -1200 -386 -1580 -86
-422 -205 -1060 -202 -1085 2 -17 10 -26 25 -28 28 -4 27 -11 118 465 158 827
195 993 370 1668 62 242 146 566 185 720 99 389 228 874 310 1166 38 136 97
354 131 485 109 429 153 542 279 729 93 138 132 204 238 401 51 94 92 180 92
190 0 19 -17 44 -30 44 -3 0 -11 -5 -18 -12z"/>
<path d="M8389 9068 c-9 -16 -12 -118 -13 -358 l-1 -335 26 -80 c15 -44 47
-138 72 -210 82 -233 97 -358 97 -819 0 -451 24 -779 74 -1000 46 -204 79
-375 116 -596 75 -452 229 -1037 361 -1367 65 -163 112 -321 139 -468 12 -66
26 -130 31 -142 10 -26 31 -30 48 -9 29 34 -57 397 -147 623 -57 143 -133 371
-186 558 -51 180 -148 622 -191 873 -46 266 -63 352 -114 582 -36 161 -61 473
-61 785 -1 315 -17 661 -35 760 -16 86 -40 165 -118 390 -54 156 -60 219 -52
548 6 285 6 287 -14 287 -11 0 -26 -10 -32 -22z"/>
<path d="M9458 8929 c-30 -17 -22 -62 21 -117 71 -89 564 -577 664 -656 96
-76 120 -86 133 -51 8 21 -5 35 -111 120 -103 84 -632 611 -622 621 11 12 313
-162 467 -269 272 -190 387 -328 460 -552 27 -82 66 -136 116 -160 57 -27 229
-6 688 86 596 118 823 177 1076 276 217 86 460 220 460 254 0 37 -30 31 -127
-24 -352 -198 -608 -278 -1377 -432 -424 -85 -547 -105 -642 -105 -47 0 -55 4
-82 34 -16 19 -39 64 -51 101 -88 272 -269 458 -693 711 -233 139 -342 186
-380 163z"/>
<path d="M8974 8795 c-4 -8 -4 -22 -1 -29 7 -18 269 -243 412 -355 182 -142
531 -375 707 -471 56 -31 98 -60 101 -71 7 -24 33 -24 46 -1 20 38 1 59 -110
122 -107 59 -384 241 -564 370 -112 80 -296 228 -440 354 -107 94 -140 111
-151 81z"/>
<path d="M12922 8718 c-6 -9 -20 -1333 -41 -3918 -17 -2148 -33 -4106 -37
-4352 l-6 -448 36 0 36 0 0 263 c0 144 16 2102 34 4352 24 2805 31 4094 24
4103 -6 6 -16 12 -23 12 -7 0 -17 -6 -23 -12z"/>
<path d="M13822 8578 c-8 -11 -83 -7624 -82 -8365 l0 -213 30 0 c17 0 30 1 30
3 0 1 18 1928 40 4282 28 3041 36 4283 28 4292 -13 16 -33 17 -46 1z"/>
<path d="M8903 8373 c-24 -9 -13 -43 45 -139 80 -134 228 -328 524 -685 139
-169 298 -361 352 -428 55 -66 108 -123 118 -127 22 -7 38 2 38 23 0 18 -154
212 -528 662 -273 330 -361 444 -457 597 -63 99 -70 106 -92 97z"/>
<path d="M15854 8045 c-4 -8 6 -44 21 -78 16 -34 58 -134 95 -222 60 -143 70
-160 91 -160 20 0 24 5 23 30 -2 32 -113 301 -162 390 -28 51 -57 69 -68 40z"/>
<path d="M8782 7708 c-19 -19 -14 -38 12 -47 18 -7 35 -38 75 -138 119 -290
240 -544 483 -1008 346 -659 552 -984 1201 -1890 99 -137 195 -269 214 -293
36 -44 65 -52 71 -19 4 21 4 21 -313 467 -661 929 -819 1187 -1268 2070 -105
206 -235 476 -288 600 -53 123 -106 235 -117 247 -22 25 -51 30 -70 11z"/>
<path d="M16486 7672 c-14 -27 -54 -65 -108 -103 -20 -14 -21 -18 -9 -33 14
-16 32 -16 74 0 9 3 16 -2 20 -15 3 -12 19 -24 45 -31 47 -15 83 -1 115 42 17
23 19 31 9 53 -17 36 -56 31 -60 -7 -4 -32 -22 -40 -61 -27 l-31 11 31 38 c22
27 30 46 27 66 -4 40 -33 43 -52 6z"/>
<path d="M15661 7441 c-12 -8 -13 -60 -7 -333 3 -177 11 -402 17 -498 15 -262
68 -915 75 -934 4 -10 15 -16 28 -14 20 3 21 8 19 108 -2 58 -14 251 -28 430
-30 392 -42 622 -51 960 -7 281 -12 307 -53 281z"/>
<path d="M8814 6365 c-4 -8 -2 -21 4 -28 5 -6 41 -82 80 -167 180 -399 284
-599 490 -945 166 -278 314 -513 487 -775 193 -291 201 -302 228 -298 15 2 22
10 21 23 0 11 -75 133 -165 270 -485 734 -754 1203 -999 1740 -40 88 -80 168
-88 178 -19 21 -51 22 -58 2z"/>
<path d="M16906 5808 c-2 -7 -13 -58 -25 -113 -60 -271 -124 -548 -164 -715
-25 -102 -53 -219 -62 -261 -13 -63 -31 -103 -106 -229 -160 -272 -186 -333
-219 -530 -11 -69 -36 -195 -55 -280 -18 -85 -48 -243 -65 -350 -17 -107 -38
-239 -46 -294 -9 -54 -29 -153 -45 -219 -35 -140 -35 -162 1 -162 24 0 27 7
57 125 18 69 42 186 54 260 48 314 83 513 110 630 15 69 39 191 53 271 14 81
35 171 46 200 28 71 121 245 181 339 66 104 86 152 109 266 11 55 36 160 55
234 18 74 47 200 64 280 16 80 48 228 71 329 33 145 39 190 31 208 -11 25 -39
31 -45 11z"/>
<path d="M16253 5683 c-7 -2 -13 -16 -13 -31 0 -14 -7 -34 -17 -44 -22 -25
-30 -211 -11 -248 29 -54 107 -48 149 12 42 58 34 245 -13 295 -20 22 -63 29
-95 16z m64 -93 c17 -49 16 -136 -2 -169 -20 -40 -43 -47 -51 -15 -8 33 5 156
19 172 8 10 7 19 -2 34 -11 17 -10 19 6 16 10 -2 23 -19 30 -38z"/>
<path d="M15790 3874 c-11 -13 -6 -21 33 -58 42 -39 47 -47 47 -87 0 -47 -37
-134 -55 -130 -6 1 -10 39 -10 91 0 92 -9 116 -38 104 -22 -8 -28 -35 -30
-132 -2 -72 0 -83 22 -106 67 -72 157 9 169 151 6 78 -9 116 -61 154 -46 33
-59 35 -77 13z"/>
<path d="M11153 3644 c-3 -9 -1 -24 5 -33 21 -30 87 -146 99 -174 7 -15 17
-96 23 -180 5 -84 17 -215 25 -292 9 -77 17 -198 19 -270 2 -71 4 -133 5 -137
2 -17 41 -6 52 14 15 28 5 297 -16 453 -9 61 -20 174 -24 252 -8 127 -12 149
-38 205 -69 146 -130 213 -150 162z"/>
<path d="M5000 3455 c-157 -106 -413 -280 -570 -386 -157 -107 -358 -243 -447
-304 -90 -60 -254 -172 -365 -247 -112 -76 -391 -265 -620 -420 -230 -156
-614 -416 -853 -578 -1207 -818 -1190 -806 -1190 -831 0 -15 7 -25 18 -27 19
-4 36 7 527 340 157 106 421 285 588 398 166 112 375 254 464 315 90 61 292
198 451 305 158 107 364 247 457 310 93 63 305 207 472 320 166 113 429 291
583 395 154 105 400 271 547 370 147 99 270 186 273 194 7 17 -13 41 -34 41
-9 -1 -144 -88 -301 -195z"/>
<path d="M10984 3615 c-3 -7 3 -38 14 -67 16 -43 24 -53 43 -53 20 0 24 5 23
30 -2 50 -30 105 -54 105 -11 0 -23 -7 -26 -15z"/>
<path d="M5175 3044 c-319 -229 -1362 -974 -2318 -1656 -957 -683 -1741 -1247
-1744 -1255 -7 -18 17 -45 36 -40 9 2 804 566 1766 1253 963 687 2008 1433
2323 1658 476 340 572 413 570 430 -8 54 -38 36 -633 -390z"/>
<path d="M11217 3313 c-2 -5 -7 -19 -10 -33 -15 -64 -410 -414 -705 -625 -162
-116 -221 -145 -291 -145 -34 0 -65 6 -77 14 -19 15 -21 34 -11 176 2 30 -2
35 -21 38 -35 5 -55 -53 -50 -150 3 -72 5 -80 36 -110 31 -32 35 -33 115 -33
66 0 91 5 130 24 170 83 582 408 799 629 128 130 149 163 128 201 -11 21 -35
28 -43 14z"/>
<path d="M10123 3274 c-8 -21 11 -59 39 -78 13 -9 68 -49 123 -89 141 -101
307 -194 370 -207 77 -16 130 0 207 64 161 134 283 250 283 270 0 37 -33 30
-88 -18 -201 -175 -256 -221 -282 -237 -50 -32 -103 -25 -202 26 -93 48 -340
214 -384 259 -30 29 -57 34 -66 10z"/>
<path d="M14534 3115 c-4 -8 -3 -22 0 -31 3 -8 -48 -208 -113 -444 -152 -546
-205 -755 -197 -775 3 -10 15 -15 28 -13 17 2 26 14 35 43 36 124 303 1129
309 1164 4 27 2 46 -6 56 -16 19 -49 19 -56 0z"/>
<path d="M6030 3054 c-52 -37 -266 -181 -475 -322 -209 -140 -447 -301 -530
-357 -82 -56 -276 -186 -430 -290 -154 -104 -361 -243 -460 -310 -99 -67 -299
-202 -445 -300 -146 -98 -346 -233 -445 -300 -99 -67 -324 -219 -500 -337
-176 -119 -428 -288 -560 -378 -132 -89 -338 -227 -459 -308 l-218 -147 56 -3
56 -3 293 197 c160 109 389 263 507 342 118 80 310 209 425 287 116 78 323
217 460 310 535 360 717 483 905 610 107 73 521 352 920 620 1155 777 1042
698 1038 729 -5 38 -41 27 -138 -40z"/>
<path d="M9523 2512 c-7 -4 -16 -27 -22 -51 -5 -24 -16 -50 -24 -58 -8 -9 -50
-19 -98 -24 -105 -13 -127 -28 -158 -108 -24 -65 -29 -69 -109 -91 -24 -6 -60
-26 -80 -44 -20 -19 -46 -35 -57 -37 -14 -3 -20 -12 -20 -29 0 -21 5 -26 33
-28 26 -3 41 4 78 37 34 29 58 42 92 47 58 9 103 52 122 118 7 25 18 50 24 55
6 5 49 14 95 20 47 6 95 18 109 27 32 21 54 76 50 127 -3 41 -13 53 -35 39z"/>
<path d="M11230 2465 c-5 -14 -12 -25 -14 -25 -31 0 -356 -106 -493 -161 -231
-93 -315 -121 -503 -170 -172 -45 -274 -91 -422 -190 -118 -79 -305 -192 -389
-234 -205 -104 -772 -300 -1024 -355 -142 -30 -307 -42 -434 -30 -92 8 -116
14 -181 47 -55 28 -84 51 -115 90 -45 58 -62 68 -81 52 -25 -21 -15 -47 42
-108 70 -76 166 -126 274 -142 104 -16 359 -5 485 20 183 38 556 156 823 263
255 101 317 134 587 308 212 138 266 163 455 214 202 54 282 82 520 179 102
41 226 87 275 101 200 56 255 82 255 119 0 47 -44 63 -60 22z"/>
<path d="M16032 2451 c-17 -10 -21 -41 -39 -286 -10 -146 -17 -359 -17 -583
l-1 -354 -25 -20 c-94 -76 -303 -178 -625 -303 -288 -112 -333 -111 -583 6
-59 28 -158 71 -220 95 -116 46 -161 70 -281 149 -74 49 -104 54 -109 18 -3
-20 35 -52 154 -130 16 -10 8 -11 -41 -6 -33 3 -65 10 -72 15 -18 14 -53 -1
-53 -22 0 -38 40 -51 192 -59 156 -9 177 -16 408 -124 253 -118 341 -120 602
-16 54 21 100 39 102 39 1 0 -1 -21 -5 -48 -4 -26 -9 -76 -9 -112 -3 -98 -9
-111 -68 -143 -75 -41 -82 -55 -92 -199 -12 -165 -37 -246 -90 -288 -27 -21
-40 -40 -40 -56 0 -23 3 -24 59 -24 l59 0 63 88 c35 48 129 177 209 287 283
387 470 658 470 682 0 40 -36 28 -74 -25 -20 -26 -127 -173 -239 -327 -257
-355 -361 -495 -363 -492 -3 4 15 232 21 254 3 15 24 32 55 48 27 14 57 36 66
49 19 30 41 291 25 310 -7 8 28 27 127 69 157 67 337 166 394 217 27 24 42 48
48 75 5 21 6 172 3 335 -4 215 -1 364 11 551 9 140 16 271 16 291 0 36 -16 53
-38 39z"/>
<path d="M11346 2418 c-3 -7 -7 -77 -10 -155 -3 -78 -10 -151 -15 -162 -13
-24 -119 -68 -276 -115 -66 -20 -171 -54 -233 -76 -137 -48 -305 -80 -422 -80
-81 0 -90 -2 -135 -32 -33 -22 -70 -36 -119 -44 -94 -16 -300 -97 -423 -166
-54 -31 -190 -103 -303 -160 -113 -58 -234 -123 -270 -145 -252 -154 -485
-248 -685 -277 -198 -28 -232 -28 -441 -1 -371 48 -367 47 -449 171 -65 98
-71 115 -81 224 -7 81 -20 107 -49 96 -18 -7 -21 -113 -5 -196 21 -109 154
-283 235 -307 22 -7 144 -26 270 -44 255 -34 370 -35 560 -4 196 32 430 128
675 278 36 22 162 89 280 150 118 60 254 132 302 159 111 63 323 146 408 159
40 6 82 20 111 38 39 24 59 29 153 35 139 9 286 38 411 83 55 19 160 53 233
76 167 51 292 111 310 150 19 40 29 321 12 342 -15 18 -39 20 -44 3z"/>
<path d="M15593 1903 c-22 -8 -14 -33 22 -67 30 -28 35 -40 35 -78 0 -41 -13
-68 -33 -68 -4 0 -5 20 -1 45 5 36 3 46 -10 51 -31 12 -56 -24 -56 -81 0 -90
62 -115 126 -51 31 31 34 40 34 90 0 73 -20 120 -62 146 -35 21 -36 21 -55 13z"/>
<path d="M7593 1823 c-64 -61 -91 -142 -63 -194 20 -37 64 -10 52 33 -9 34 26
101 69 132 29 20 39 34 37 50 -5 38 -41 31 -95 -21z"/>
<path d="M14217 1643 c-36 -36 81 -138 221 -192 122 -48 454 -78 670 -60 182
14 475 80 510 113 7 7 10 20 6 30 -8 21 -10 21 -179 -23 -228 -59 -432 -74
-695 -51 -218 19 -355 64 -452 149 -44 39 -67 49 -81 34z"/>
<path d="M16163 1154 c-3 -9 -2 -23 3 -32 5 -8 99 -50 208 -93 154 -60 203
-76 218 -68 19 10 23 26 10 45 -8 13 -395 164 -418 164 -8 0 -17 -7 -21 -16z"/>
<path d="M14065 980 c-18 -30 46 -79 103 -80 9 0 36 -9 59 -19 53 -25 89 -85
119 -202 13 -49 31 -103 39 -120 12 -23 -11 -6 -92 66 -127 114 -148 129 -168
121 -32 -12 -13 -44 64 -110 154 -129 365 -366 410 -459 23 -47 25 -107 5
-114 -23 -8 -74 50 -168 192 -110 166 -154 219 -207 246 -46 23 -121 25 -139
4 -22 -26 -1 -63 96 -173 88 -98 234 -300 234 -323 0 -5 18 -9 40 -9 l40 0
-25 53 -26 52 32 -38 c60 -71 135 -89 180 -41 32 34 32 110 0 174 -27 50 -31
52 73 -29 75 -58 127 -66 175 -25 54 45 74 104 74 209 -1 197 -88 320 -305
430 -101 51 -177 69 -265 63 -53 -3 -64 -1 -68 13 -11 32 -74 78 -132 95 -32
9 -68 20 -81 25 -30 12 -59 11 -67 -1z m587 -251 c68 -34 162 -104 192 -143
54 -72 70 -123 71 -226 0 -78 -4 -101 -20 -130 -29 -49 -65 -52 -119 -9 -98
78 -200 177 -250 243 -47 62 -96 144 -96 161 0 3 32 -32 72 -77 169 -196 240
-258 294 -258 124 0 61 181 -131 376 -98 100 -99 107 -13 63z m-170 3 c106
-61 220 -184 284 -306 62 -119 -5 -72 -170 117 -128 147 -183 217 -169 217 4
0 29 -13 55 -28z m-266 -302 c18 -12 48 -42 67 -68 43 -61 108 -162 103 -162
-2 0 -23 25 -46 56 -23 30 -71 87 -107 125 -69 72 -72 82 -17 49z"/>
<path d="M16636 816 c-19 -42 -139 -237 -267 -433 -127 -197 -234 -363 -236
-370 -4 -9 6 -13 33 -13 l39 1 109 172 c369 580 400 634 394 686 -2 15 -10 27
-20 29 -14 3 -26 -15 -52 -72z"/>
</g>
</svg>
